<svg width="168" height="23" viewBox="0 0 168 23" fill="none" xmlns="http://www.w3.org/2000/svg">
<path d="M4.992 15.376V11.728H17.424V15.376H4.992ZM14.256 0.999999L22.56 19H17.736L10.608 2.896H12L4.896 19H0.072L8.376 0.999999H14.256ZM24.0806 5.32H28.5206V9.448L28.3526 10.024V13.576L28.5206 14.632V22.96H24.0806V5.32ZM27.0566 12.16C27.2966 10.688 27.7526 9.416 28.4246 8.344C29.0966 7.272 29.9446 6.44 30.9686 5.848C32.0086 5.24 33.1606 4.936 34.4246 4.936C35.7686 4.936 36.9446 5.24 37.9526 5.848C38.9766 6.456 39.7766 7.304 40.3526 8.392C40.9286 9.464 41.2166 10.72 41.2166 12.16C41.2166 13.6 40.9286 14.864 40.3526 15.952C39.7766 17.024 38.9766 17.864 37.9526 18.472C36.9446 19.08 35.7686 19.384 34.4246 19.384C33.1446 19.384 31.9926 19.088 30.9686 18.496C29.9606 17.888 29.1126 17.048 28.4246 15.976C27.7526 14.888 27.2966 13.616 27.0566 12.16ZM36.7046 12.16C36.7046 11.424 36.5526 10.776 36.2486 10.216C35.9446 9.64 35.5206 9.192 34.9766 8.872C34.4486 8.536 33.8326 8.368 33.1286 8.368C32.4246 8.368 31.7526 8.536 31.1126 8.872C30.4886 9.192 29.9366 9.64 29.4566 10.216C28.9926 10.776 28.6326 11.424 28.3766 12.16C28.6326 12.896 28.9926 13.552 29.4566 14.128C29.9366 14.688 30.4886 15.136 31.1126 15.472C31.7526 15.792 32.4246 15.952 33.1286 15.952C33.8326 15.952 34.4486 15.792 34.9766 15.472C35.5206 15.136 35.9446 14.688 36.2486 14.128C36.5526 13.552 36.7046 12.896 36.7046 12.16ZM51.4314 19.384C49.7034 19.384 48.1914 19.08 46.8954 18.472C45.5994 17.864 44.5914 17.016 43.8714 15.928C43.1514 14.84 42.7914 13.584 42.7914 12.16C42.7914 10.72 43.1514 9.464 43.8714 8.392C44.5914 7.304 45.5994 6.456 46.8954 5.848C48.2074 5.24 49.7194 4.936 51.4314 4.936C53.1594 4.936 54.6714 5.24 55.9674 5.848C57.2634 6.456 58.2714 7.304 58.9914 8.392C59.7274 9.464 60.0954 10.72 60.0954 12.16C60.0954 13.6 59.7274 14.864 58.9914 15.952C58.2714 17.024 57.2634 17.864 55.9674 18.472C54.6714 19.08 53.1594 19.384 51.4314 19.384ZM51.4314 16.024C52.3114 16.024 53.0554 15.872 53.6634 15.568C54.2874 15.248 54.7594 14.8 55.0794 14.224C55.4154 13.648 55.5834 12.96 55.5834 12.16C55.5834 11.36 55.4154 10.672 55.0794 10.096C54.7594 9.504 54.2874 9.056 53.6634 8.752C53.0554 8.432 52.3114 8.272 51.4314 8.272C50.5834 8.272 49.8474 8.432 49.2234 8.752C48.5994 9.056 48.1194 9.504 47.7834 10.096C47.4474 10.672 47.2794 11.36 47.2794 12.16C47.2794 12.96 47.4474 13.648 47.7834 14.224C48.1194 14.8 48.5994 15.248 49.2234 15.568C49.8474 15.872 50.5834 16.024 51.4314 16.024ZM62.3072 0.519999H66.7472V19H62.3072V0.519999ZM69.6197 0.519999H74.0597V19H69.6197V0.519999ZM84.9002 19.384C83.1722 19.384 81.6602 19.08 80.3642 18.472C79.0682 17.864 78.0602 17.016 77.3402 15.928C76.6202 14.84 76.2602 13.584 76.2602 12.16C76.2602 10.72 76.6202 9.464 77.3402 8.392C78.0602 7.304 79.0682 6.456 80.3642 5.848C81.6762 5.24 83.1882 4.936 84.9002 4.936C86.6282 4.936 88.1402 5.24 89.4362 5.848C90.7322 6.456 91.7402 7.304 92.4602 8.392C93.1962 9.464 93.5642 10.72 93.5642 12.16C93.5642 13.6 93.1962 14.864 92.4602 15.952C91.7402 17.024 90.7322 17.864 89.4362 18.472C88.1402 19.08 86.6282 19.384 84.9002 19.384ZM84.9002 16.024C85.7802 16.024 86.5242 15.872 87.1322 15.568C87.7562 15.248 88.2282 14.8 88.5482 14.224C88.8842 13.648 89.0522 12.96 89.0522 12.16C89.0522 11.36 88.8842 10.672 88.5482 10.096C88.2282 9.504 87.7562 9.056 87.1322 8.752C86.5242 8.432 85.7802 8.272 84.9002 8.272C84.0522 8.272 83.3162 8.432 82.6922 8.752C82.0682 9.056 81.5882 9.504 81.2522 10.096C80.9162 10.672 80.7482 11.36 80.7482 12.16C80.7482 12.96 80.9162 13.648 81.2522 14.224C81.5882 14.8 82.0682 15.248 82.6922 15.568C83.3162 15.872 84.0522 16.024 84.9002 16.024ZM97.605 19.24C97.125 19.24 96.685 19.128 96.285 18.904C95.901 18.68 95.597 18.376 95.373 17.992C95.149 17.592 95.037 17.152 95.037 16.672C95.037 16.192 95.149 15.76 95.373 15.376C95.597 14.992 95.901 14.688 96.285 14.464C96.685 14.224 97.125 14.104 97.605 14.104C98.085 14.104 98.517 14.224 98.901 14.464C99.285 14.688 99.589 14.992 99.813 15.376C100.037 15.76 100.149 16.192 100.149 16.672C100.149 17.152 100.037 17.592 99.813 17.992C99.589 18.376 99.285 18.68 98.901 18.904C98.517 19.128 98.085 19.24 97.605 19.24Z" fill="#1659F1"/>
<path d="M111.599 0.999999C113.711 0.999999 115.559 1.376 117.143 2.128C118.727 2.88 119.959 3.928 120.839 5.272C121.735 6.616 122.183 8.192 122.183 10C122.183 11.792 121.735 13.368 120.839 14.728C119.959 16.072 118.727 17.12 117.143 17.872C115.559 18.624 113.711 19 111.599 19H102.815V0.999999H111.599ZM107.327 17.152L105.119 14.992H111.935C113.087 14.992 114.087 14.784 114.935 14.368C115.783 13.952 116.439 13.376 116.903 12.64C117.367 11.888 117.599 11.008 117.599 10C117.599 8.976 117.367 8.096 116.903 7.36C116.439 6.624 115.783 6.048 114.935 5.632C114.087 5.216 113.087 5.008 111.935 5.008H105.119L107.327 2.848V17.152ZM134.614 19.384C132.502 19.384 130.646 18.992 129.046 18.208C127.462 17.424 126.23 16.328 125.35 14.92C124.47 13.512 124.03 11.872 124.03 10C124.03 8.128 124.47 6.488 125.35 5.08C126.23 3.672 127.462 2.576 129.046 1.792C130.646 1.008 132.502 0.615999 134.614 0.615999C136.726 0.615999 138.574 1.008 140.158 1.792C141.758 2.576 142.998 3.672 143.878 5.08C144.774 6.488 145.222 8.128 145.222 10C145.222 11.872 144.774 13.512 143.878 14.92C142.998 16.328 141.758 17.424 140.158 18.208C138.574 18.992 136.726 19.384 134.614 19.384ZM134.614 15.328C135.862 15.328 136.934 15.12 137.83 14.704C138.726 14.272 139.414 13.656 139.894 12.856C140.39 12.056 140.638 11.104 140.638 10C140.638 8.896 140.39 7.944 139.894 7.144C139.414 6.344 138.726 5.736 137.83 5.32C136.934 4.888 135.862 4.672 134.614 4.672C133.382 4.672 132.318 4.888 131.422 5.32C130.526 5.736 129.83 6.344 129.334 7.144C128.838 7.944 128.59 8.896 128.59 10C128.59 11.104 128.838 12.056 129.334 12.856C129.83 13.656 130.526 14.272 131.422 14.704C132.318 15.12 133.382 15.328 134.614 15.328ZM167.66 11.56C167.484 13.112 166.948 14.48 166.052 15.664C165.156 16.832 163.972 17.744 162.5 18.4C161.028 19.056 159.348 19.384 157.46 19.384C155.396 19.384 153.58 18.992 152.012 18.208C150.46 17.424 149.252 16.328 148.388 14.92C147.524 13.512 147.092 11.872 147.092 10C147.092 8.128 147.524 6.488 148.388 5.08C149.252 3.672 150.46 2.576 152.012 1.792C153.58 1.008 155.396 0.615999 157.46 0.615999C159.348 0.615999 161.028 0.943999 162.5 1.6C163.972 2.256 165.156 3.168 166.052 4.336C166.948 5.504 167.484 6.872 167.66 8.44H163.1C162.94 7.624 162.612 6.928 162.116 6.352C161.636 5.776 160.996 5.336 160.196 5.032C159.412 4.712 158.5 4.552 157.46 4.552C156.26 4.552 155.228 4.776 154.364 5.224C153.5 5.656 152.836 6.28 152.372 7.096C151.908 7.912 151.676 8.88 151.676 10C151.676 11.12 151.908 12.088 152.372 12.904C152.836 13.72 153.5 14.352 154.364 14.8C155.228 15.232 156.26 15.448 157.46 15.448C158.5 15.448 159.412 15.296 160.196 14.992C160.996 14.688 161.636 14.248 162.116 13.672C162.612 13.096 162.94 12.392 163.1 11.56H167.66Z" fill="black"/>
</svg>
